<?xml version="1.0" standalone="no"?>
<!DOCTYPE svg PUBLIC "-//W3C//DTD SVG 20010904//EN"
 "http://www.w3.org/TR/2001/REC-SVG-20010904/DTD/svg10.dtd">
<svg version="1.0" xmlns="http://www.w3.org/2000/svg"
 width="240.000000pt" height="240.000000pt" viewBox="0 0 240.000000 240.000000"
 preserveAspectRatio="xMidYMid meet">
<metadata>
Created by potrace 1.11, written by Peter Selinger 2001-2013
</metadata>
<g transform="translate(0.000000,240.000000) scale(0.100000,-0.100000)"
fill="#000000" stroke="none">
<path d="M358 2301 l-33 -29 -3 -1054 c-1 -579 0 -1063 3 -1076 3 -12 20 -31
38 -42 31 -19 54 -20 830 -20 870 0 845 -2 867 56 6 15 10 347 10 845 0 678
-2 825 -14 852 -8 18 -119 137 -248 265 l-234 232 -592 0 -592 0 -32 -29z
m1172 -277 c0 -212 -1 -226 -17 -218 -10 4 -36 8 -58 8 -36 1 -40 -1 -40 -24
0 -22 19 -39 60 -53 6 -2 12 -57 15 -123 4 -101 8 -124 26 -149 l22 -29 -22
-29 c-18 -24 -22 -47 -26 -145 l-5 -117 -37 -18 c-39 -18 -49 -42 -26 -65 16
-16 43 -15 78 3 47 24 60 61 60 170 0 119 21 164 76 165 56 1 55 65 -1 76 -60
11 -69 32 -75 163 -3 64 -10 124 -14 134 -8 16 6 17 218 17 l226 0 0 -485 0
-485 -795 0 -795 0 0 715 0 715 565 0 565 0 0 -226z m240 1 l165 -165 -168 0
-167 0 0 165 c0 91 1 165 3 165 1 0 76 -74 167 -165z m220 -1575 l0 -290 -795
0 -795 0 0 290 0 290 795 0 795 0 0 -290z"/>
<path d="M825 1787 l-35 -35 0 -110 c0 -125 -13 -155 -74 -166 -23 -4 -37 -14
-41 -27 -8 -24 10 -49 35 -49 61 0 80 -40 80 -165 0 -109 13 -146 60 -170 35
-18 62 -19 78 -3 22 22 13 48 -22 63 -18 8 -36 22 -40 30 -3 9 -6 61 -6 114 0
86 -3 102 -23 133 l-24 34 24 34 c20 31 23 46 23 140 0 58 4 110 8 116 4 6 21
17 37 25 21 10 30 21 30 39 0 22 -5 25 -38 28 -32 3 -43 -2 -72 -31z"/>
<path d="M1137 1612 c-47 -52 11 -115 74 -82 23 13 26 62 3 84 -21 21 -57 20
-77 -2z"/>
<path d="M1151 1346 c-8 -9 -11 -43 -9 -93 l3 -78 30 0 30 0 3 84 c2 61 -1 87
-10 92 -19 13 -34 11 -47 -5z"/>
<path d="M708 470 c-2 -130 -6 -163 -18 -170 -21 -13 -87 -12 -112 1 -21 11
-37 -1 -38 -27 0 -27 107 -50 155 -34 69 23 75 42 75 226 l0 164 -29 0 -30 0
-3 -160z"/>
<path d="M923 620 c-26 -10 -63 -66 -63 -93 0 -37 32 -78 84 -107 71 -40 90
-62 82 -95 -9 -37 -49 -50 -105 -36 -43 12 -60 5 -61 -21 0 -23 91 -41 141
-28 51 14 79 51 79 104 0 49 -20 76 -83 107 -81 41 -96 70 -56 110 17 17 30
20 65 16 37 -4 44 -2 50 16 4 12 1 23 -7 28 -18 11 -98 10 -126 -1z"/>
<path d="M1231 608 c-60 -41 -75 -71 -79 -154 -7 -124 30 -190 119 -214 115
-31 210 75 196 217 -11 107 -61 163 -151 171 -41 3 -57 -1 -85 -20z m120 -38
c53 -29 74 -182 32 -238 -44 -60 -106 -63 -147 -8 -17 23 -21 42 -21 111 0 79
2 85 29 114 31 33 70 40 107 21z"/>
<path d="M1560 436 l0 -196 30 0 29 0 3 133 3 132 75 -132 c72 -128 76 -133
108 -133 l32 0 0 195 0 195 -30 0 -29 0 -3 -136 -3 -136 -75 133 c-71 125 -78
134 -108 137 l-32 3 0 -195z"/>
</g>
</svg>
